<svg xmlns="http://www.w3.org/2000/svg" width="19.998" height="19.998" viewBox="0 0 19.998 19.998"><path d="M10,1.778a30.66,30.66,0,0,1,4,.111,5.153,5.153,0,0,1,1.889.333,3.9,3.9,0,0,1,1.889,1.889A5.153,5.153,0,0,1,18.11,6c0,1,.111,1.333.111,4a30.659,30.659,0,0,1-.111,4,5.153,5.153,0,0,1-.333,1.889,3.9,3.9,0,0,1-1.889,1.889A5.153,5.153,0,0,1,14,18.11c-1,0-1.333.111-4,.111a30.659,30.659,0,0,1-4-.111,5.153,5.153,0,0,1-1.889-.333,3.9,3.9,0,0,1-1.889-1.889A5.153,5.153,0,0,1,1.889,14c0-1-.111-1.333-.111-4a30.66,30.66,0,0,1,.111-4,5.153,5.153,0,0,1,.333-1.889A3.99,3.99,0,0,1,3,3a1.878,1.878,0,0,1,1.111-.778A5.153,5.153,0,0,1,6,1.889a30.66,30.66,0,0,1,4-.111M10,0A32.827,32.827,0,0,0,5.888.111,6.859,6.859,0,0,0,3.444.556,4.349,4.349,0,0,0,1.667,1.667,4.349,4.349,0,0,0,.556,3.444,5.062,5.062,0,0,0,.111,5.888,32.827,32.827,0,0,0,0,10,32.827,32.827,0,0,0,.111,14.11a6.859,6.859,0,0,0,.444,2.444,4.349,4.349,0,0,0,1.111,1.778,4.349,4.349,0,0,0,1.778,1.111,6.859,6.859,0,0,0,2.444.444A32.828,32.828,0,0,0,10,20a32.828,32.828,0,0,0,4.111-.111,6.859,6.859,0,0,0,2.444-.444,4.661,4.661,0,0,0,2.889-2.889,6.859,6.859,0,0,0,.444-2.444C19.887,13,20,12.666,20,10a32.828,32.828,0,0,0-.111-4.111,6.859,6.859,0,0,0-.444-2.444,4.349,4.349,0,0,0-1.111-1.778A4.349,4.349,0,0,0,16.554.556,6.859,6.859,0,0,0,14.11.111,32.827,32.827,0,0,0,10,0m0,4.888A5.028,5.028,0,0,0,4.888,10,5.111,5.111,0,1,0,10,4.888m0,8.444A3.274,3.274,0,0,1,6.666,10,3.274,3.274,0,0,1,10,6.666,3.274,3.274,0,0,1,13.332,10,3.274,3.274,0,0,1,10,13.332m5.333-9.888a1.222,1.222,0,1,0,1.222,1.222,1.233,1.233,0,0,0-1.222-1.222" fill="#444" fill-rule="evenodd"/></svg>