<svg xmlns="http://www.w3.org/2000/svg" width="101.452" height="14.125" viewBox="0 0 101.452 14.125"><g transform="translate(-625 -443)"><g transform="translate(625 443)"><g transform="translate(12.704 0)"><path d="M158.463,156.28a.279.279,0,0,1,.061-.12.724.724,0,0,1,.129-.12.7.7,0,0,1,.162-.088.46.46,0,0,1,.162-.032h2.436a.41.41,0,0,1,.276.1,1.175,1.175,0,0,1,.171.171l.238.526,5,12.5a.267.267,0,0,1-.028.3.474.474,0,0,1-.362.115h-2.731a.616.616,0,0,1-.338-.078.5.5,0,0,1-.185-.263q-.191-.47-.371-.937t-.361-.937h-5.052q-.182.471-.367.937c-.123.311-.246.623-.366.937a.475.475,0,0,1-.485.342h-2.807a.475.475,0,0,1-.3-.092.213.213,0,0,1-.043-.277Zm1.732,3.95q-.18.47-.366,1.015t-.366,1.1q-.182.555-.367,1.094c-.123.36-.246.7-.366,1.011h2.921Z" transform="translate(-153.266 -155.711)" fill="#fff"/><path d="M250.873,156.345a.443.443,0,0,1,.1-.309.4.4,0,0,1,.314-.115h6.147a4.742,4.742,0,0,1,1.836.355,4.791,4.791,0,0,1,1.495.964,4.5,4.5,0,0,1,1,1.426,4.21,4.21,0,0,1,.366,1.74,4.025,4.025,0,0,1-.176,1.195,4.414,4.414,0,0,1-.49,1.061,4.53,4.53,0,0,1-.747.9,4.858,4.858,0,0,1-.947.688l2.446,4.467c.044.086.1.188.171.3a.621.621,0,0,1,.1.3.27.27,0,0,1-.1.227.431.431,0,0,1-.271.078h-3.264a.487.487,0,0,1-.29-.092.417.417,0,0,1-.167-.25l-2.312-4.218h-1.541v4.162q0,.4-.438.4h-2.826a.455.455,0,0,1-.3-.1.374.374,0,0,1-.114-.3Zm7.451,4.1a1.562,1.562,0,0,0-.1-.554,1.8,1.8,0,0,0-.3-.508,1.732,1.732,0,0,0-.457-.388,1.6,1.6,0,0,0-.59-.2c-.178-.013-.344-.024-.5-.032s-.325-.015-.509-.015h-1.313v3.387h1.751c.114,0,.215,0,.3-.009s.187-.015.3-.027a1.537,1.537,0,0,0,1.047-.568,1.652,1.652,0,0,0,.276-.508A1.769,1.769,0,0,0,258.323,160.443Z" transform="translate(-235.824 -155.711)" fill="#fff"/><path d="M328.886,156.326a.371.371,0,0,1,.128-.295.475.475,0,0,1,.319-.11h10.239a.489.489,0,0,1,.3.1.411.411,0,0,1,.153.3v2.291a.506.506,0,0,1-.119.318.4.4,0,0,1-.337.152h-3.283v10.106a.436.436,0,0,1-.123.3.418.418,0,0,1-.323.134h-2.79a.455.455,0,0,1-.3-.124.4.4,0,0,1-.142-.31V159.086h-3.273a.45.45,0,0,1-.319-.119.458.458,0,0,1-.128-.35Z" transform="translate(-301.802 -155.711)" fill="#fff"/><path d="M394.093,156.28a.28.28,0,0,1,.061-.12.726.726,0,0,1,.129-.12.7.7,0,0,1,.162-.088.462.462,0,0,1,.162-.032h2.436a.409.409,0,0,1,.276.1,1.175,1.175,0,0,1,.171.171l.238.526,5,12.5a.267.267,0,0,1-.028.3.474.474,0,0,1-.362.115H399.6a.617.617,0,0,1-.338-.078.5.5,0,0,1-.185-.263q-.191-.47-.371-.937t-.361-.937h-5.052q-.182.471-.367.937c-.123.311-.246.623-.366.937a.475.475,0,0,1-.485.342h-2.807a.475.475,0,0,1-.3-.092.213.213,0,0,1-.043-.277Zm1.732,3.95q-.181.47-.366,1.015t-.366,1.1q-.182.555-.367,1.094c-.123.36-.246.7-.366,1.011h2.922Z" transform="translate(-352.607 -155.711)" fill="#fff"/><path d="M484.311,156.267a.4.4,0,0,1,.114-.286.414.414,0,0,1,.315-.12h2.816a.448.448,0,0,1,.3.111.391.391,0,0,1,.143.3v10.041h5.233a.426.426,0,0,1,.3.111.391.391,0,0,1,.123.3v2.428a.431.431,0,0,1-.109.285.407.407,0,0,1-.309.139h-8.5a.365.365,0,0,1-.419-.406Z" transform="translate(-433.213 -155.661)" fill="#fff"/><path d="M549.318,161.688a6.8,6.8,0,0,1,.257-1.881,6.938,6.938,0,0,1,.733-1.69,7.2,7.2,0,0,1,1.137-1.437,7.093,7.093,0,0,1,1.471-1.1,7.608,7.608,0,0,1,1.738-.712,7.5,7.5,0,0,1,3.871,0,7.564,7.564,0,0,1,1.742.712,7.183,7.183,0,0,1,1.476,1.1,6.992,6.992,0,0,1,1.138,1.437,7.214,7.214,0,0,1,.733,1.69,6.883,6.883,0,0,1,0,3.76,6.963,6.963,0,0,1-1.871,3.1,7.41,7.41,0,0,1-1.476,1.1,7.273,7.273,0,0,1-1.742.712,7.647,7.647,0,0,1-3.871,0,7.312,7.312,0,0,1-3.209-1.815,7.2,7.2,0,0,1-1.137-1.423,6.8,6.8,0,0,1-.99-3.561Zm3.682-.01a3.817,3.817,0,0,0,.266,1.431,3.524,3.524,0,0,0,.746,1.16,3.459,3.459,0,0,0,1.135.776,3.848,3.848,0,0,0,2.893,0,3.449,3.449,0,0,0,1.141-.776,3.527,3.527,0,0,0,.745-1.16,3.972,3.972,0,0,0,0-2.858,3.567,3.567,0,0,0-.745-1.169,3.485,3.485,0,0,0-1.141-.785,3.8,3.8,0,0,0-2.893,0,3.5,3.5,0,0,0-1.135.785,3.565,3.565,0,0,0-.746,1.169A3.823,3.823,0,0,0,553,161.678Z" transform="translate(-489.002 -154.611)" fill="#fff"/><path d="M660.316,158.685a4.193,4.193,0,0,0-1.037-.518,3.706,3.706,0,0,0-1.18-.185,3.524,3.524,0,0,0-1.446.292,3.46,3.46,0,0,0-1.127.79,3.635,3.635,0,0,0-.738,1.169,3.95,3.95,0,0,0,0,2.85,3.6,3.6,0,0,0,.738,1.159,3.447,3.447,0,0,0,1.127.78,3.577,3.577,0,0,0,1.446.286,4.729,4.729,0,0,0,.661-.046q.328-.046.7-.12v-2.42a.414.414,0,0,1,.1-.291.4.4,0,0,1,.313-.116h2.589a.553.553,0,0,1,.3.111.345.345,0,0,1,.162.3v4.471a.464.464,0,0,1-.276.407,5.358,5.358,0,0,1-.99.508,8.3,8.3,0,0,1-1.133.35,10.258,10.258,0,0,1-1.194.208,10.389,10.389,0,0,1-1.175.069,7.42,7.42,0,0,1-1.936-.249,7.3,7.3,0,0,1-3.207-1.815,7.2,7.2,0,0,1-1.137-1.423,6.935,6.935,0,0,1-.732-5.442,6.978,6.978,0,0,1,.732-1.69,7.206,7.206,0,0,1,1.137-1.437,7.068,7.068,0,0,1,1.47-1.1,7.589,7.589,0,0,1,1.737-.712,7.584,7.584,0,0,1,4.091.055,7.5,7.5,0,0,1,1.908.892.64.64,0,0,1,.248.245.321.321,0,0,1-.039.346l-1.541,2.162a.667.667,0,0,1-.248.2A.383.383,0,0,1,660.316,158.685Z" transform="translate(-574.185 -154.611)" fill="#fff"/></g><g transform="translate(0 0)"><path d="M97.608,158.156a3.782,3.782,0,0,1,.536-.042,3.678,3.678,0,0,1,1.189.19,3.626,3.626,0,0,1,1.028.542.419.419,0,0,0,.29.081.376.376,0,0,0,.223-.186l1.608-2.284a.393.393,0,0,0,.028-.361.6.6,0,0,0-.238-.247,7.409,7.409,0,0,0-1.908-.918,7.372,7.372,0,0,0-4.091-.057,7.456,7.456,0,0,0-1.737.733c-.124.072-.245.149-.363.228Z" transform="translate(-90.942 -154.613)" fill="#fff"/><path d="M85.58,183.872l-1.627-2.253a.388.388,0,0,0-.228-.165.453.453,0,0,0-.286.082,3.731,3.731,0,0,1-1.037.527,3.808,3.808,0,0,1-1.2.188,3.583,3.583,0,0,1-1.437-.284,3.486,3.486,0,0,1-1.132-.774,3.531,3.531,0,0,1-.742-1.145,3.855,3.855,0,0,1,0-2.816c0-.009.008-.017.012-.026l-2.674-2.454q-.126.18-.24.369a6.873,6.873,0,0,0-.733,1.676,6.763,6.763,0,0,0,.733,5.394,7.127,7.127,0,0,0,1.137,1.411,7.315,7.315,0,0,0,3.207,1.8,7.488,7.488,0,0,0,1.936.247,7.391,7.391,0,0,0,2.174-.316,7.685,7.685,0,0,0,1.927-.893.6.6,0,0,0,.238-.229A.35.35,0,0,0,85.58,183.872Z" transform="translate(-74 -171.524)" fill="#fff"/><path d="M90.6,170.346h0a1.127,1.127,0,0,1-1.645.119l-6.32-6.025a.411.411,0,0,1-.04-.559h0a.411.411,0,0,1,.555-.08l7.211,4.876A1.152,1.152,0,0,1,90.6,170.346Z" transform="translate(-81.137 -162.267)" fill="#fff"/></g></g></g></svg>