<svg xmlns="http://www.w3.org/2000/svg" width="19.826" height="16.082" viewBox="0 0 19.826 16.082"><path d="M44.278,18.082A11.463,11.463,0,0,0,55.844,6.516V5.965a8.953,8.953,0,0,0,1.983-2.093,9.144,9.144,0,0,1-2.313.661,4.285,4.285,0,0,0,1.762-2.2,10.1,10.1,0,0,1-2.533.991A3.934,3.934,0,0,0,51.768,2a4.138,4.138,0,0,0-4.075,4.075,2.147,2.147,0,0,0,.11.881,11.388,11.388,0,0,1-8.371-4.3,4.218,4.218,0,0,0-.551,2.093,4.376,4.376,0,0,0,1.762,3.415,3.713,3.713,0,0,1-1.873-.551h0a4.026,4.026,0,0,0,3.3,3.965,3.4,3.4,0,0,1-1.1.11,1.874,1.874,0,0,1-.771-.11,4.173,4.173,0,0,0,3.855,2.864,8.316,8.316,0,0,1-5.067,1.762A3.05,3.05,0,0,1,38,16.1a10.4,10.4,0,0,0,6.278,1.983" transform="translate(-38 -1.999)" fill="#444" fill-rule="evenodd"/></svg>