<svg xmlns="http://www.w3.org/2000/svg" xmlns:xlink="http://www.w3.org/1999/xlink" width="19.254" height="13.662" viewBox="0 0 19.254 13.662"><defs><clipPath id="a"><rect width="19.254" height="13.662" fill="#444"/></clipPath></defs><g transform="translate(0)" clip-path="url(#a)"><path d="M644.509,664.591c-.695-.826-1.979-1.163-4.43-1.163h-8.9c-2.507,0-3.813.359-4.505,1.239-.675.858-.675,2.122-.675,3.872v3.334c0,3.389.8,5.11,5.181,5.11h8.9c2.126,0,3.3-.3,4.066-1.026.781-.748,1.115-1.969,1.115-4.083v-3.334c0-1.845-.052-3.116-.751-3.947Zm-6.144,6.074-4.041,2.112a.621.621,0,0,1-.909-.551v-4.21a.621.621,0,0,1,.908-.551l4.041,2.1a.622.622,0,0,1,0,1.1Zm0,0" transform="translate(-626 -663.394)" fill="#444"/></g></svg>